<svg xmlns="http://www.w3.org/2000/svg" xmlns:xlink="http://www.w3.org/1999/xlink" width="226" height="226" viewBox="0 0 226 226">
  <defs>
    <linearGradient id="linear-gradient" x1="1" y1="1" x2="0" gradientUnits="objectBoundingBox">
      <stop offset="0" stop-color="#80073b"/>
      <stop offset="1" stop-color="#6a0530"/>
    </linearGradient>
  </defs>
  <g id="cd9" transform="translate(-4742 -1567)">
    <rect id="Rectangle_96" data-name="Rectangle 96" width="226" height="226" transform="translate(4742 1567)" fill="url(#linear-gradient)"/>
    <g id="Group_58" data-name="Group 58" transform="translate(-11.693 20)">
      <path id="_" data-name="&amp;" d="M245.283,34.337a21.163,21.163,0,0,1-4.858,10.323,82.868,82.868,0,0,0,6.421,5.8,62.787,62.787,0,0,0,6.477,4.622,35.522,35.522,0,0,0,6.128,3.081,15.743,15.743,0,0,0,5.42,1.124,10.683,10.683,0,0,0,1.968-.18v.708c-.247.1-.574.236-.967.427a10.187,10.187,0,0,1-1.484.517,17.058,17.058,0,0,1-2.058.439,17.533,17.533,0,0,1-2.687.18,15.5,15.5,0,0,1-5.184-1,33.455,33.455,0,0,1-5.769-2.766,54.93,54.93,0,0,1-6.038-4.194A74.559,74.559,0,0,1,236.67,48.1a22.14,22.14,0,0,1-5.881,2.8,24.075,24.075,0,0,1-7.028.978,20.735,20.735,0,0,1-6.2-.855,13.314,13.314,0,0,1-4.655-2.463,10.987,10.987,0,0,1-2.946-3.879,12.245,12.245,0,0,1-1.023-5.105,11,11,0,0,1,1.012-4.813,14.268,14.268,0,0,1,2.665-3.789,21.8,21.8,0,0,1,3.767-3.081c1.406-.922,2.856-1.81,4.329-2.676a30.9,30.9,0,0,1-1.383-4.5,19.117,19.117,0,0,1-.495-4.183,11.705,11.705,0,0,1,.787-4.374,9.816,9.816,0,0,1,2.137-3.306,9.547,9.547,0,0,1,3.182-2.092A10.368,10.368,0,0,1,228.866,6a9.659,9.659,0,0,1,2.89.427,6.893,6.893,0,0,1,2.35,1.282,6.184,6.184,0,0,1,1.586,2.1,7.028,7.028,0,0,1,.585,2.924,7.94,7.94,0,0,1-.877,3.756,12.371,12.371,0,0,1-2.305,3.036,21.971,21.971,0,0,1-3.272,2.586c-1.237.8-2.508,1.574-3.823,2.339a42.335,42.335,0,0,0,2.361,4.667q1.372,2.384,2.991,4.723t3.52,4.644q1.867,2.249,3.868,4.419a15.9,15.9,0,0,0,2.328-4.5,17.777,17.777,0,0,0,.843-5.622,27.1,27.1,0,0,0-.292-4.3c-.191-1.124-.394-2.148-.6-2.969V25.4h5.532v.124a10.875,10.875,0,0,0-.326,1.642c-.068.607-.146,1.271-.225,2s-.18,1.529-.281,2.4S245.463,33.325,245.283,34.337ZM226.066,49.09a16.991,16.991,0,0,0,4.813-.675,15.113,15.113,0,0,0,4.194-1.934c-1.394-1.473-2.744-3-4.059-4.565s-2.541-3.171-3.688-4.8-2.249-3.261-3.182-4.914a48.354,48.354,0,0,1-2.541-4.88,31.971,31.971,0,0,0-2.688,2.069,13.427,13.427,0,0,0-2.17,2.361,11.246,11.246,0,0,0-1.451,2.811,9.952,9.952,0,0,0-.54,3.373,11.627,11.627,0,0,0,.843,4.5,10.536,10.536,0,0,0,5.937,5.926,11.908,11.908,0,0,0,4.532.731Zm-2.249-34.2a18.271,18.271,0,0,0,.394,3.677,33.186,33.186,0,0,0,1.124,3.924c1-.641,1.945-1.293,2.811-1.968a13.651,13.651,0,0,0,2.249-2.249,9.805,9.805,0,0,0,1.529-2.53,7.78,7.78,0,0,0,.551-2.991,6.2,6.2,0,0,0-.236-1.732,4.5,4.5,0,0,0-.742-1.406,3.138,3.138,0,0,0-1.125-.978,3.778,3.778,0,0,0-1.72-.394,4.161,4.161,0,0,0-3.677,1.743,8.434,8.434,0,0,0-1.214,4.9Z" transform="translate(4635.712 1627.536)" fill="rgba(235,225,204,0.8)"/>
      <path id="Union_7" data-name="Union 7" d="M-3953.864-1601.9a31.9,31.9,0,0,1-10.874-6.246,28.1,28.1,0,0,1-7.105-9.713,30.475,30.475,0,0,1-2.533-12.595,29.8,29.8,0,0,1,1.009-7.723,30.7,30.7,0,0,1,3.018-7.21,29.376,29.376,0,0,1,4.781-6.29,30.687,30.687,0,0,1,6.44-4.917,34.231,34.231,0,0,1,8.054-3.272,36.617,36.617,0,0,1,9.5-1.252,43.7,43.7,0,0,1,14.767,2.429l2.806,7.647-.377.166a24.268,24.268,0,0,0-7.737-4.738,28.658,28.658,0,0,0-19.443-.151,20.892,20.892,0,0,0-7.436,4.721,21.507,21.507,0,0,0-4.857,7.542,28.589,28.589,0,0,0-1.719,10.242,40.4,40.4,0,0,0,1.645,11.765,27.326,27.326,0,0,0,4.9,9.474,22.777,22.777,0,0,0,8.146,6.29,26.65,26.65,0,0,0,11.4,2.292,22.572,22.572,0,0,0,4.706-.452,22.3,22.3,0,0,0,4.526-1.509,23.956,23.956,0,0,0,4.073-2.353,21.089,21.089,0,0,0,3.469-3.108l.452.286-3.287,8.415a35.4,35.4,0,0,1-6.818,1.826,44.923,44.923,0,0,1-7.542.647h-.483a42.058,42.058,0,0,1-13.488-2.217Z" transform="translate(8759.072 3290.123)" fill="#f0e9d9"/>
      <path id="Union_7-2" data-name="Union 7" d="M-3902.6-1600.492c-1.1,0-2.428,0-3.983-.1l-4.676-.226-4.495-.2c-1.387,0-2.474-.106-3.244-.106v-.166a21.389,21.389,0,0,0,.469-2.142c.151-.86.286-1.918.392-3.183s.2-2.76.256-4.525.077-3.787.077-6.125v-26.908c0-2.34,0-4.406-.077-6.171s-.135-3.3-.256-4.525-.241-2.413-.393-3.288a20.5,20.5,0,0,0-.467-2.187v-.166h4.5c.512,0,1.388,0,2.608-.091l4.195-.166,4.888-.166h4.766a43.082,43.082,0,0,1,11.374,1.508,25.185,25.185,0,0,1,9.487,4.872,23.307,23.307,0,0,1,6.456,8.929,33.579,33.579,0,0,1,2.4,13.486,39.431,39.431,0,0,1-1.253,10.316,29.171,29.171,0,0,1-3.531,8.085,24.275,24.275,0,0,1-5.431,6.033,29.805,29.805,0,0,1-6.969,4.119,36.146,36.146,0,0,1-8.145,2.338,52.539,52.539,0,0,1-8.865.754Zm-2.82-56.623-2.61.166-1.915.12c0,3.017-.106,6.034-.167,8.945v20.906c0,2.625,0,5.295.106,8.04s.091,5.385.182,7.919.179,4.631.286,6.3l1.508.2c.633,0,1.313.121,2.037.151s1.418.09,2.1.1h1.735a47.157,47.157,0,0,0,5.793-.3,25.776,25.776,0,0,0,5.852-1.508,21.5,21.5,0,0,0,5.323-3.017,17.873,17.873,0,0,0,4.36-4.842,25.038,25.038,0,0,0,3.017-7.15,40.4,40.4,0,0,0,1.056-9.775,38.242,38.242,0,0,0-1.509-11.237,22.787,22.787,0,0,0-4.524-8.311,18.9,18.9,0,0,0-7.3-5.143,26.71,26.71,0,0,0-10-1.75h-2.519Z" transform="translate(8816.686 3289.933)" fill="#f0e9d9"/>
    </g>
  </g>
</svg>
